<?xml version="1.0" encoding="utf-8"?>
<!-- Generator: Adobe Illustrator 25.0.0, SVG Export Plug-In . SVG Version: 6.00 Build 0)  -->
<svg version="1.1" id="Capa_1" xmlns:ns0="http://www.w3.org/2000/svg"
	 xmlns="http://www.w3.org/2000/svg" xmlns:xlink="http://www.w3.org/1999/xlink" x="0px" y="0px" viewBox="0 0 685.4 196.4"
	 style="enable-background:new 0 0 685.4 196.4;" xml:space="preserve">
<style type="text/css">
	.st0{fill:#FFFFFF;}
</style>
<path class="st0" d="M48.2,36.1h581l0.2,0.2l0.2,113.8l-0.5,1h-157l-0.2-0.2v-1.8l0.8-0.2h154.5V38.4H50.4v93l-0.2,17.5h154.5l1,0.5
	v1.2l-0.5,0.5h-157l-0.2-0.2V36.4L48.2,36.1z"/>
<path class="st0" d="M206.2,65.9h6l4.8,0.8l4.2,1.2l4,2l3.5,2.2l0.5,1l-2.5,4.2l-2.2,3.8l-1-0.2l-2.5-1.8l-3.5-1.8l-4.8-1.2l-4-0.2
	l-3.8,0.5l-2.8,1l-2.5,1.8l-2,2l-2,3.5l-1,3l-0.5,2.5l-0.2,4l0.5,3.8l1,3.8l2,3.8l2.2,2.5l2,1.5l2.5,1.2l3.2,0.8h2.8l2.8-0.5l3-1.2
	l2.5-1.8l1.8-2l1-2l0.5-1.5l0.2-2.2l-0.5-0.2h-9l-0.8-0.5v-7.5l0.2-0.8h21l0.5,0.8l-0.2,10l-0.8,4l-1.2,3l-2.2,3.5l-2.5,2.8l-3,2.2
	l-4.8,2.5l-3.8,1.2l-4.2,0.8h-4.5l-4.2-0.8l-3.8-1.2l-3.8-2l-3-2.2l-2.8-2.8l-2.8-3.8l-2.2-4.8l-1-3.2l-0.8-4.2v-6l1-5.2l1.2-3.8
	l2.2-4.2l2.5-3.2l2.5-2.5l2.8-2l4.2-2.2l4-1.2L206.2,65.9z"/>
<path class="st0" d="M111.2,65.9h9.2l0.8,0.5l4.2,11.2l3.5,9l4.8,12.2l5.5,14.2l2.8,7l0.2,1.5l-0.5,0.2h-10l-0.8-0.8l-4-10.2
	l-4.2-10.8l-5-12.8l-2-4.8l-0.5,1l-4.8,12.5l-2.8,7l-7,18l-1,0.8l-10.8-0.2l2.5-6.5l9.8-25.2l4.5-11.5l4.2-11l0.8-1.2L111.2,65.9z"
	/>
<path class="st0" d="M376.2,66.4h10.5l4.5,0.2l3.5,0.8l3,1.2l2.8,2l1.8,1.8l1.5,2.8l1,2.8l0.2,2v4l-1,4l-1.2,2.5l-2.2,2.8l-2.5,1.8
	l-2.8,1.2l-3.8,1l-1.8,0.2v0.5l9,12l3.5,4.8l2.5,3.2l2.5,3.5l-0.2,0.5h-1.8l-1.2-0.8l-1.8-2l-3.5-4.8l-2.5-3.2l-3-4l-2.5-3.2
	l-2.8-3.8l-1.8-2.5h-8l-0.2,24l-0.2,0.2h-1.5l-0.2-0.2l-0.2-12.2V66.9L376.2,66.4z M378.2,68.6l-0.2,0.5v26l13.5-0.2l3.5-1l2.5-1.5
	l2.5-2.2l1.5-2.2l1-3l0.2-1.5v-3.2l-1-4l-1.5-2.5l-2-2l-2.5-1.5l-2.8-1l-1.8-0.2L378.2,68.6z"/>
<path class="st0" d="M562.7,66.4h25l1,0.5v1.5l-0.2,0.2l-7,0.2h-17l0.2,2v15.2l-0.2,6.8h20.8l0.8,0.5v1.5l-0.2,0.2h-21.2v24.5h16.5
	l7.5,0.2l0.2,0.2v1.2l-1.5,0.5h-23.5l-1.5-0.2l-0.2-0.5V66.6L562.7,66.4z"/>
<path class="st0" d="M299.2,66.1l1.2,0.2l1.5,3.2l2.5,6.5l9.5,24.5l4,10.2l3.5,9l0.5,1.8l-0.2,0.2h-2l-0.8-1.2l-4-10.2l-8.8-22.8
	l-5.2-13.8l-1.2-3.2l-0.2-0.2l-2.8,7.5l-3.5,9l-2,5.2l-4.5,11.8l-4.8,12.2l-2.2,5.2l-0.5,0.5h-1.8l-0.2-0.8l3.5-9.2l4.5-11.5l7.8-20
	l2.5-6.2l1.5-4l1-2.5L299.2,66.1z"/>
<path class="st0" d="M501.7,66.4l1,0.2l0.2,1.8l-0.5,0.5h-18v52.8l-1.8,0.2l-0.5-1.2V70.1l0.2-1.2h-18.2l-0.2-0.2v-1.8l0.2-0.2
	L501.7,66.4z"/>
<path class="st0" d="M227.2,142.1l0.8,0.2l3.5,9l0.8,2l1.8-4.5l1.5-4l1-2.5l1,0.2l0.5,2.5l1.8,11.2v0.5l-1,0.2l-0.5-0.5l-1.2-8.8
	l-0.5-2l-2.2,6.2l-1.5,3.5h-1l-2-5l-1.8-4.5h-0.2l-1.5,9.5l-0.5,1.2h-0.8l0.2-3.8l1-6.8l0.8-4L227.2,142.1z"/>
<path class="st0" d="M430.9,142.4h3.2l2.5,1l1.8,1.5l1.2,2.2l0.2,0.8v3.8l-1,2.2l-1,1.2l-2.2,1.5l-2,0.5h-2.8l-2.5-1.2l-2-2.2
	l-0.8-1.8l-0.2-2.8l0.5-2.2l1.5-2.2l1.8-1.5L430.9,142.4z M431.4,143.4l-2.5,1.2v0.5h-0.5l-1.2,2l-0.5,2l0.2,2.8l1.5,2.5l1.8,1.2
	l2.8,0.5l2.2-0.5l1.5-1l1.5-2l0.5-1v-4l-1.5-2.2l-2-1.5l-1.8-0.5H431.4z"/>
<path class="st0" d="M291.4,142.4h3.2l2.5,1l1.8,1.5l1.2,2.5l0.2,1v2.5l-0.8,2.5l-1.2,1.8l-2.2,1.5l-1.8,0.5h-2.8l-2.5-1l-1.8-1.8
	l-1.2-2.5l-0.2-1v-2.5l1-2.5l1.8-2l2-1.2L291.4,142.4z M291.9,143.4l-2.2,1l-1.5,1.8l-1,2.5v2.5l1.2,2.5l1.2,1.2l1,0.8l0.8,0.2h3.8
	l2-1.2l1.5-2l0.5-1.8v-2.5l-0.8-2l-1.5-1.8l-2-1l-0.8-0.2H291.9z"/>
<path class="st0" d="M259.4,142.4h3l2.8,0.8l1.5,1.2l0.5,2l-0.5,2.2l-1,1.2l-1,0.5h-1l1,2l2.5,3.2l0.5,0.8v0.8l-1.2-0.2l-3.2-4.2
	l-1-1.2l-1.8-0.8v5.5l-0.2,0.8h-1l-0.2-5.2v-7l0.2-2L259.4,142.4z M260.7,143.4l-0.5,1.5v3.2l0.2,1.5l2.5,0.2l2-1l1-1.2v-2.2l-1-1.2
	l-1.2-0.5L260.7,143.4z"/>
<path class="st0" d="M398.9,142.4h2.8l3.2,0.8l2.2,1.5l1.5,2.2l0.5,3l-0.5,2.8l-1.8,2.2l-1.8,1.2l-4,1h-2.2l-0.2-3v-8L398.9,142.4z
	 M400.2,143.4l-0.2,0.5v12.2h1.8l2.5-0.8l2-1.2l1.5-2.2l0.2-1v-2.5l-0.8-1.8l-1.5-1.8l-2-1l-2.2-0.5H400.2z"/>
<path class="st0" d="M413.9,142.4h3.2l2.2,0.5l1.8,1.5l0.5,1v2.2l-1,1.8l-2,1h-0.5l1,2l2.5,3.2l0.5,0.8v0.8l-1-0.2l-1.8-2l-2.8-3.8
	l-1.5-0.5l-0.2,6l-0.2,0.5l-0.8-0.2l-0.2-4.5v-5.5L413.9,142.4z M415.2,143.4l-0.2,0.5v5.8l2.5,0.2l2.5-1.2l0.8-1.5l-0.2-1.8l-1-1.2
	l-2.2-0.8H415.2z"/>
<path class="st0" d="M369.4,142.1h0.5l0.2,11.2l0.8,1.8l1.5,0.8h2.5l1.2-1l0.5-1l0.2-1.8v-9l0.2-0.8l1.2,0.2v10l-0.8,2.5l-1.2,1.5
	l-1.2,0.5h-3.5l-2.2-1.5l-0.5-1.2l-0.2-1.8v-5.5l0.2-4.2L369.4,142.1z"/>
<path class="st0" d="M248.7,142.4l1,0.5l1.8,4.2l1.5,4.2l2,5.2v0.5l-1-0.2l-1.2-2.5l-1-2.2h-5.8l-0.8,2.2l-1.2,2.5l-1,0.2l0.5-2
	l2.5-6.5l2.5-6L248.7,142.4z M248.9,144.9v0.5h-0.5l-1.8,4.5v0.8l0.8,0.2h4l-1.8-5.2L248.9,144.9z"/>
<path class="st0" d="M388.2,142.1h0.8l3.8,9.8l1.8,4.5v0.8l-1-0.2l-0.8-1.2l-1.2-3.2l-0.2-0.2h-5.5l-2,4.8l-1,0.2l0.2-1.8l3.8-10
	l1-2L388.2,142.1z M388.4,144.4l-1,2.2l-1.2,3.5l0.2,0.8h4.5l-1-3.2l-1.2-3.2H388.4z"/>
<path class="st0" d="M357.9,142.4h4l2.2,1l0.8,1l-0.2,0.8l-2.5-1.2l-1-0.2h-2.5l-2.2,1l-1.8,2l-0.5,1.5v3.5l1,2l1.8,1.5l1.2,0.5
	l2.8,0.2l2-0.5l1.2-0.8h0.5l-0.2,1.2l-1.8,1l-1,0.2h-3.5l-2.2-1l-1.2-1l-1.5-2.2l-0.5-1l-0.2-3l0.8-2.5l1.8-2.2l1.8-1.2L357.9,142.4
	z"/>
<path class="st0" d="M277.4,142.1l3,0.5l1.5,0.8l0.8,0.8v0.8l-1.5-0.5l-2-0.8h-2.5l-2.5,1l-1.5,1.8l-0.8,2.2v2.5l0.8,2l1.2,1.5l2,1
	h4.2l1.5-0.8h1l-0.5,1l-1.8,1l-1.2,0.2h-3.2l-2.5-1.2l-1.8-1.8l-1-2l-0.2-0.8v-3.2l0.8-2l1.8-2.2l2.2-1.2L277.4,142.1z"/>
<path class="st0" d="M307.9,142.1l2.5,0.2l1.8,1.2l0.5,0.8v0.8l-1.2-0.2l-1.2-1l-0.5-0.2h-1.8l-1.2,1l-0.2,0.5v2l1.2,1l4,1.8
	l1.2,1.2l0.2,0.8v2.8l-1.8,2l-1,0.5h-3l-2.2-1.5l-1.2-1.8v-0.5l1,0.2l2,1.8l1.2,0.5h1.8l1.2-0.8l0.8-1.8l-0.5-1.8l-1.2-1l-2.8-1.2
	l-1.5-1l-1-1.2v-2l1.2-2L307.9,142.1z"/>
<path class="st0" d="M447.4,142.1l2.5,0.2l1.5,1l0.5,0.8v1.2l-1.2-0.8l-1.2-1l-1-0.2l-1.8,0.8l-0.8,1.5l0.2,1.8l1.5,1l2.8,1l2.2,2
	l0.2,0.8v2l-1,1.5l-1.5,1.2l-0.5,0.2h-3l-2.2-1.5l-1-1.5v-1l1,0.5l1.2,1.5l1.5,0.8h2.2l1.2-1l0.8-1.5l-0.5-1.8l-2-1.2l-3-1.2
	l-1.5-1.8v-2.5l1-1.5l1.2-1L447.4,142.1z"/>
<path class="st0" d="M328.7,142.1l1.2,0.8l2.2,4.2l1,1.8v0.5h0.5l0.5-1.2l2.2-4l1.2-1.8l1-0.2l-0.2,1.2l-2.2,4l-1.5,2.5l-0.5,1.5
	l-0.2,5.2l-0.2,0.5l-0.8-0.2l-0.2-6.2l-1.5-2.8l-2-3.5l-0.5-0.8V142.1z"/>
<path class="st0" d="M227.7,146.4"/>
<path class="st0" d="M389.2,150.4"/>
<path class="st0" d="M248.9,145.4"/>
</svg>
